Coordinates
version=1
nRows=13
nColumns=63
inDegrees=yes

Units are S.I. units (second, meters, Newtons, ...)
If the header above contains a line with 'inDegrees', this indicates whether rotational values are in degrees (yes) or radians (no).

endheader
time	pelvis_tilt	pelvis_list	pelvis_rotation	pelvis_tx	pelvis_ty	pelvis_tz	hip_flexion_r	hip_adduction_r	hip_rotation_r	knee_angle_r	knee_angle_r_beta	ankle_angle_r	subtalar_angle_r	mtp_angle_r	hip_flexion_l	hip_adduction_l	hip_rotation_l	knee_angle_l	knee_angle_l_beta	ankle_angle_l	subtalar_angle_l	mtp_angle_l	L5_S1_Flex_Ext	L5_S1_Lat_Bending	L5_S1_axial_rotation	L4_L5_Flex_Ext	L4_L5_Lat_Bending	L4_L5_axial_rotation	L3_L4_Flex_Ext	L3_L4_Lat_Bending	L3_L4_axial_rotation	L2_L3_Flex_Ext	L2_L3_Lat_Bending	L2_L3_axial_rotation	L1_L2_Flex_Ext	L1_L2_Lat_Bending	L1_L2_axial_rotation	L1_T12_Flex_Ext	L1_T12_Lat_Bending	L1_T12_axial_rotation	Abs_r3	Abs_r2	Abs_r1	Abs_t1	Abs_t2	neck_flexion	neck_bending	neck_rotation	arm_flex_r	arm_add_r	arm_rot_r	elbow_flex_r	pro_sup_r	wrist_flex_r	wrist_dev_r	arm_flex_l	arm_add_l	arm_rot_l	elbow_flex_l	pro_sup_l	wrist_flex_l	wrist_dev_l
1.135593	0.926920	-0.845682	91.594183	0.147012	0.916297	0.411407	1.600246	-4.736015	-24.115256	16.403235	0.286290	32.334971	18.806592	0.000000	4.108005	0.791095	0.285133	16.796736	0.293158	27.391551	-1.402362	0.000000	0.097641	-0.295634	2.093783	0.181329	-0.393193	2.224644	0.160415	-0.718804	2.224644	0.111594	-0.718804	1.832060	0.090670	-0.602856	1.701198	0.055792	-0.457937	1.570337	0.697441	-3.344268	11.644991	0.000000	0.000000	23.064523	9.780861	-28.638731	60.200645	-53.290336	-15.959170	141.528556	78.433373	-7.353027	20.853216	76.707125	-39.878848	5.335022	139.854025	85.857646	-5.063269	9.681954
1.152542	0.960121	-0.777150	91.560948	0.146606	0.916288	0.411483	1.529029	-4.731557	-24.064210	16.385335	0.285978	32.334675	18.815143	0.000000	4.074539	0.787732	0.173323	16.771033	0.292710	27.635507	-1.396915	0.000000	0.090341	-0.284994	2.068160	0.167772	-0.379042	2.197420	0.148421	-0.692935	2.197420	0.103250	-0.692935	1.809640	0.083890	-0.581160	1.680380	0.051621	-0.441456	1.551120	0.645295	-3.223911	11.502486	0.000000	0.000000	22.614220	9.472256	-28.294267	62.183719	-53.948311	-17.492762	140.325373	76.456806	-8.190569	20.162786	77.321810	-40.428268	2.950029	140.076423	85.271656	-5.342395	9.753660
1.169492	0.972119	-0.740633	91.509656	0.146369	0.916237	0.411538	1.493719	-4.738817	-23.989653	16.367457	0.285666	32.348864	18.820736	0.000000	4.073802	0.776090	-0.083092	16.746558	0.292283	27.958552	-1.197449	0.000000	0.084083	-0.281387	2.046108	0.156151	-0.374245	2.173990	0.138140	-0.684165	2.173990	0.096099	-0.684165	1.790345	0.078080	-0.573805	1.662463	0.048045	-0.435869	1.534581	0.600597	-3.183111	11.379841	0.000000	0.000000	22.160136	9.357364	-28.105034	63.856047	-54.482074	-18.675461	139.284625	74.962088	-8.828288	19.319051	77.963638	-40.817428	1.130471	140.224804	84.779223	-5.369625	10.108876
1.186441	0.972214	-0.728751	91.458256	0.146252	0.916139	0.411556	1.484682	-4.752094	-23.907135	16.355830	0.285463	32.375749	18.825711	0.000000	4.089612	0.761033	-0.384979	16.712595	0.291690	28.324267	-0.914699	0.000000	0.079126	-0.280787	2.020714	0.146946	-0.373446	2.147009	0.129997	-0.682705	2.147009	0.090433	-0.682705	1.768125	0.073477	-0.572580	1.641830	0.045213	-0.434939	1.515535	0.565192	-3.176316	11.238605	0.000000	0.000000	21.707498	9.369838	-27.914092	65.237347	-54.907230	-19.424136	138.423262	73.848622	-9.312680	18.406967	78.563905	-41.163392	-0.160526	140.302808	84.397681	-5.214157	10.610114
1.203390	0.953958	-0.741239	91.404452	0.146274	0.915992	0.411556	1.503609	-4.777118	-23.817835	16.351092	0.285380	32.419416	18.828776	0.000000	4.126047	0.749087	-0.727515	16.680204	0.291124	28.703113	-0.557072	0.000000	0.075977	-0.283957	1.996865	0.141097	-0.377663	2.121669	0.124823	-0.690413	2.121669	0.086834	-0.690413	1.747257	0.070552	-0.579045	1.622453	0.043413	-0.439849	1.497649	0.542698	-3.212177	11.105966	0.000000	0.000000	21.302942	9.472935	-27.738770	66.229586	-55.247321	-19.827723	137.764949	72.907044	-9.739180	17.465118	79.138251	-41.491666	-0.930845	140.330572	84.138709	-4.852640	11.300011
1.220339	0.926373	-0.761298	91.355159	0.146409	0.915820	0.411555	1.534363	-4.806049	-23.730188	16.356905	0.285482	32.473354	18.830181	0.000000	4.166950	0.734964	-1.092855	16.652060	0.290633	29.069134	-0.151216	0.000000	0.073963	-0.287526	1.965851	0.137356	-0.382410	2.088717	0.121513	-0.699091	2.088717	0.084532	-0.699091	1.720120	0.068682	-0.586323	1.597254	0.042262	-0.445378	1.474388	0.528308	-3.252553	10.933475	0.000000	0.000000	20.899119	9.561225	-27.456035	66.874464	-55.426232	-19.862262	137.311399	72.286222	-10.020851	16.683311	79.531770	-41.908645	-1.320932	140.338308	84.016539	-4.408587	11.977358
1.237288	0.888433	-0.775853	91.313722	0.146646	0.915665	0.411568	1.559647	-4.838025	-23.651608	16.365004	0.285623	32.527759	18.828974	0.000000	4.198824	0.716059	-1.504980	16.628323	0.290219	29.386950	0.337039	0.000000	0.072672	-0.290462	1.919115	0.134958	-0.386314	2.039059	0.119392	-0.706229	2.039059	0.083056	-0.706229	1.679225	0.067483	-0.592310	1.559281	0.041525	-0.449926	1.439336	0.519086	-3.285764	10.673541	0.000000	0.000000	20.459894	9.549356	-26.967857	67.155928	-55.363110	-19.535915	137.072207	72.304651	-10.181735	16.148037	79.569891	-42.471515	-1.514762	140.374196	84.039698	-3.934730	12.577506
1.254237	0.860642	-0.779124	91.286930	0.146943	0.915566	0.411624	1.573186	-4.852544	-23.592913	16.371124	0.285730	32.564530	18.826559	0.000000	4.219161	0.681179	-1.902275	16.611753	0.289930	29.613046	0.811865	0.000000	0.072342	-0.290461	1.854211	0.134347	-0.386313	1.970099	0.118851	-0.706226	1.970099	0.082680	-0.706226	1.622434	0.067177	-0.592307	1.506546	0.041336	-0.449923	1.390658	0.516734	-3.285748	10.312564	0.000000	0.000000	19.949788	9.382614	-26.337030	67.011043	-55.049503	-18.989645	137.077470	73.324971	-10.101041	15.957451	79.129863	-43.168614	-1.567800	140.426424	84.213743	-3.595512	12.873741
1.271186	0.838561	-0.781481	91.278029	0.147296	0.915548	0.411699	1.579919	-4.852183	-23.559589	16.365879	0.285638	32.573827	18.823486	0.000000	4.225045	0.651131	-2.174919	16.577438	0.289331	29.673681	1.096830	0.000000	0.074315	-0.290971	1.785953	0.138010	-0.386992	1.897575	0.122092	-0.707468	1.897575	0.084935	-0.707468	1.562709	0.069009	-0.593349	1.451087	0.042464	-0.450715	1.339465	0.530824	-3.291526	9.932936	0.000000	0.000000	19.387322	9.086501	-25.771257	66.149117	-54.535372	-18.606113	137.329461	74.521934	-9.696041	15.982747	78.279470	-43.883781	-1.375314	140.453819	84.543669	-3.443057	12.830919
1.288136	0.813935	-0.778141	91.285138	0.147697	0.915630	0.411797	1.574731	-4.846297	-23.550383	16.348434	0.285334	32.553918	18.819026	0.000000	4.214633	0.634825	-2.322995	16.534282	0.288578	29.560818	1.175079	0.000000	0.076926	-0.292710	1.709110	0.142859	-0.389305	1.815929	0.126382	-0.711696	1.815929	0.087919	-0.711696	1.495471	0.071434	-0.596895	1.388652	0.043956	-0.453408	1.281832	0.549475	-3.311198	9.505556	0.000000	0.000000	18.810101	8.654410	-25.258933	64.577201	-53.770968	-18.398004	137.786833	75.877337	-9.101760	16.159639	76.913998	-44.629423	-1.135514	140.490427	85.020683	-3.477728	12.483281
1.305085	0.782444	-0.779515	91.315440	0.148155	0.915806	0.411885	1.563162	-4.836305	-23.568233	16.312814	0.284712	32.504449	18.810234	0.000000	4.193365	0.632932	-2.360959	16.475427	0.287550	29.290045	1.068491	0.000000	0.081504	-0.296847	1.619527	0.151360	-0.394806	1.720748	0.133902	-0.721754	1.720748	0.093151	-0.721754	1.417086	0.075684	-0.605330	1.315866	0.046571	-0.459816	1.214645	0.582173	-3.357991	9.007325	0.000000	0.000000	18.267188	8.136955	-24.816760	62.281743	-52.728102	-18.413230	138.401637	77.361845	-8.432293	16.401733	74.971480	-45.395115	-1.034421	140.556838	85.624370	-3.660166	11.884767
1.322034	0.729806	-0.801624	91.367563	0.148702	0.916040	0.411918	1.559473	-4.836366	-23.612068	16.260296	0.283796	32.447685	18.798644	0.000000	4.169086	0.654703	-2.319386	16.386375	0.285996	28.894092	0.828867	0.000000	0.090197	-0.307257	1.524991	0.167504	-0.408652	1.620303	0.148184	-0.747066	1.620303	0.103086	-0.747066	1.334367	0.083757	-0.626559	1.239055	0.051538	-0.475942	1.143743	0.644265	-3.475758	8.481544	0.000000	0.000000	17.831539	7.643123	-24.556600	59.165145	-51.422877	-18.889095	139.195151	78.809219	-7.651921	16.868721	72.546957	-46.155083	-1.023512	140.609866	86.325556	-4.084647	11.011682
1.338983	0.693203	-0.828662	91.446739	0.149248	0.916301	0.411951	1.552086	-4.812973	-23.692776	16.194255	0.282643	32.370396	18.786371	0.000000	4.145713	0.666197	-2.183043	16.297350	0.284442	28.424932	0.449614	0.000000	0.100069	-0.317258	1.428585	0.185838	-0.421953	1.517872	0.164403	-0.771382	1.517872	0.114369	-0.771382	1.250012	0.092924	-0.646953	1.160725	0.057179	-0.491433	1.071439	0.714782	-3.588889	7.945362	0.000000	0.000000	17.534895	7.147589	-24.414754	55.337540	-49.866054	-19.797578	140.035013	80.134814	-6.820609	17.092308	69.730380	-46.843367	-1.172691	140.650602	87.018962	-4.469294	10.068072
